<?xml version="1.0" standalone="no"?>
<!DOCTYPE svg PUBLIC "-//W3C//DTD SVG 20010904//EN"
 "http://www.w3.org/TR/2001/REC-SVG-20010904/DTD/svg10.dtd">
<svg version="1.0" xmlns="http://www.w3.org/2000/svg"
 width="631.000000pt" height="631.000000pt" viewBox="0 0 631.000000 631.000000"
 preserveAspectRatio="xMidYMid meet">
<metadata>
Created by potrace 1.14, written by Peter Selinger 2001-2017
</metadata>
<g transform="translate(0.000000,631.000000) scale(0.100000,-0.100000)"
fill="#000000" stroke="none">
<path d="M4965 4292 c-84 -31 -120 -79 -119 -163 0 -50 5 -64 31 -96 40 -50
77 -68 139 -67 61 2 101 23 133 70 71 103 2 252 -122 260 -23 1 -51 0 -62 -4z"/>
<path d="M5554 4285 c-42 -19 -81 -67 -92 -113 -5 -20 -8 -336 -8 -702 2 -588
4 -668 18 -695 65 -123 239 -122 299 1 l22 46 -1 673 c0 622 -1 675 -17 710
-36 74 -147 114 -221 80z"/>
<path d="M2037 4265 c-27 -14 -496 -317 -942 -608 -197 -128 -204 -141 -80
-143 113 -2 881 -13 1385 -20 796 -11 1224 -16 1262 -14 13 0 196 149 398 324
14 12 102 86 195 165 94 79 172 148 173 153 2 4 8 8 12 8 5 0 20 10 33 23 12
12 40 37 61 56 72 64 237 58 -1817 65 -478 2 -664 -1 -680 -9z"/>
<path d="M4549 4144 c-24 -20 -66 -56 -94 -79 -42 -36 -176 -149 -389 -329
-27 -22 -54 -46 -60 -51 -16 -15 -245 -208 -268 -226 -19 -15 -21 -27 -20
-155 2 -497 3 -580 11 -593 14 -22 -10 -41 366 304 71 65 148 135 169 155 21
19 49 44 60 55 12 11 47 43 77 70 30 28 87 81 128 118 l73 69 4 186 c2 103 6
255 8 339 5 182 0 192 -65 137z"/>
<path d="M4953 3838 c-35 -12 -84 -59 -100 -98 -13 -31 -14 -1351 -1 -1395 18
-63 90 -115 160 -115 47 0 110 35 138 77 l25 37 2 688 c2 576 1 694 -11 716
-23 43 -71 83 -112 93 -47 10 -60 10 -101 -3z"/>
<path d="M931 3425 c-13 -15 -10 -704 2 -712 6 -3 105 -7 221 -9 116 -1 384
-5 596 -9 212 -3 513 -8 670 -10 157 -2 463 -7 680 -11 475 -8 556 -8 567 -1
11 7 5 729 -6 740 -6 6 -523 11 -2359 21 -239 1 -366 -2 -371 -9z"/>
<path d="M676 2625 c-6 -7 -90 -120 -185 -252 l-174 -240 -2 -62 c-1 -35 2
-64 8 -68 6 -4 47 -8 91 -9 209 -5 534 -15 656 -19 125 -5 349 -11 645 -20
212 -6 566 -16 695 -20 69 -3 229 -7 355 -11 127 -3 255 -7 285 -9 l55 -3 90
92 c233 239 237 244 231 273 -3 16 -8 80 -12 143 -9 162 -10 169 -16 175 -3 3
-144 8 -314 10 -170 2 -478 7 -684 10 -409 6 -1147 15 -1493 19 -160 2 -222 0
-231 -9z"/>
<path d="M5554 2550 c-160 -71 -114 -310 61 -317 134 -5 216 130 151 250 -39
73 -133 103 -212 67z"/>
</g>
</svg>
